<?xml version="1.0" encoding="iso-8859-1"?>
<!-- Uploaded to: SVG Repo, www.svgrepo.com, Generator: SVG Repo Mixer Tools -->
<svg  version="1.1" id="Layer_1" xmlns="http://www.w3.org/2000/svg" xmlns:xlink="http://www.w3.org/1999/xlink" 
	 viewBox="0 0 512 512" xml:space="preserve">
<path style="fill:#72CCC5;" d="M274.441,104.136c-66.991,0-121.492,54.501-121.492,121.492s54.501,121.492,121.492,121.492
	s121.492-54.501,121.492-121.492S341.431,104.136,274.441,104.136z"/>
<path style="fill:#11BBA3;" d="M309.153,312.407c-66.991,0-121.492-54.501-121.492-121.492c0-24.637,7.378-47.579,20.032-66.748
	c-32.953,21.751-54.744,59.106-54.744,101.46c0,66.991,54.501,121.492,121.492,121.492c42.354,0,79.708-21.79,101.46-54.744
	C356.732,305.028,333.789,312.407,309.153,312.407z"/>
<g>
	<path style="fill:#66BF00;" d="M358.426,141.404c-0.065-2.382-1.106-4.633-2.879-6.224c-22.311-20.019-51.115-31.044-81.106-31.044
		c-25.488,0-49.89,7.81-70.566,22.587c-3.681,2.631-4.723,7.646-2.395,11.525l13.452,22.421c1.065,1.777,2.732,3.112,4.697,3.768
		l21.917,7.305l7.306,21.918c0.611,1.831,1.813,3.406,3.419,4.476l24.116,16.077l16.325,32.652c1.481,2.961,4.5,4.797,7.758,4.797
		c0.315,0,0.632-0.017,0.95-0.052c3.61-0.396,6.591-2.998,7.472-6.521l8.678-34.712c0.172-0.689,0.259-1.395,0.259-2.104v-22.44
		l38.057-38.056C357.572,146.09,358.49,143.786,358.426,141.404z"/>
	<path style="fill:#66BF00;" d="M393.217,200.011c-0.997-4.638-5.531-7.617-10.188-6.687l-32.19,6.439
		c-3.435,0.688-6.12,3.372-6.807,6.807l-8.678,43.39c-0.451,2.257,0.013,4.6,1.289,6.516l17.356,26.034
		c0.089,0.133,0.182,0.265,0.278,0.393l7.463,9.95c1.642,2.19,4.216,3.471,6.941,3.471c0.088,0,0.176-0.001,0.264-0.004
		c2.824-0.085,5.428-1.539,6.983-3.896c13.087-19.848,20.005-42.945,20.005-66.795C395.932,217.022,395.019,208.405,393.217,200.011
		z"/>
	<path style="fill:#66BF00;" d="M254.543,236.847c-1.212-1.211-2.754-2.037-4.434-2.373l-40.139-8.027l-24.044-32.06
		c-2.354-3.14-6.52-4.309-10.165-2.851l-15.625,6.25c-2.787,1.114-4.8,3.591-5.323,6.545c-1.237,6.991-1.864,14.157-1.864,21.296
		c0,23.294,6.614,45.929,19.125,65.458c12.176,19.005,29.335,34.225,49.623,44.017c1.2,0.578,2.488,0.862,3.772,0.862
		c1.934,0,3.853-0.647,5.423-1.902l40.294-32.235c1.306-1.046,2.282-2.445,2.812-4.032l8.678-26.034
		c1.039-3.119,0.228-6.557-2.097-8.882L254.543,236.847z"/>
</g>
<g>
	<path style="fill:#58AB23;" d="M187.81,196.899l-1.884-2.512c-2.354-3.14-6.52-4.309-10.165-2.851l-15.625,6.25
		c-2.787,1.114-4.8,3.591-5.323,6.545c-1.237,6.991-1.864,14.157-1.864,21.296c0,23.294,6.614,45.929,19.125,65.458
		c12.176,19.005,29.335,34.225,49.623,44.017c1.2,0.578,2.488,0.862,3.772,0.862c1.934,0,3.853-0.647,5.423-1.902l36.375-29.1
		C222.632,288.517,190.231,246.579,187.81,196.899z"/>
	<path style="fill:#58AB23;" d="M248.407,147.525h-8.678c-4.792,0-8.678-3.886-8.678-8.678s3.886-8.678,8.678-8.678h8.678
		c4.792,0,8.678,3.886,8.678,8.678S253.199,147.525,248.407,147.525z"/>
	<path style="fill:#58AB23;" d="M309.153,164.881h-8.678c-4.792,0-8.678-3.886-8.678-8.678s3.886-8.678,8.678-8.678h8.678
		c4.792,0,8.678,3.886,8.678,8.678S313.945,164.881,309.153,164.881z"/>
	<path style="fill:#58AB23;" d="M283.119,199.593h-8.678c-4.792,0-8.678-3.886-8.678-8.678s3.886-8.678,8.678-8.678h8.678
		c4.792,0,8.678,3.886,8.678,8.678S287.911,199.593,283.119,199.593z"/>
</g>
<path style="fill:#72CCC5;" d="M394.847,130.169c0-21.892,30.179-75.839,44.585-100.342c3.357-5.711,11.608-5.711,14.965,0
	c14.407,24.503,44.585,78.45,44.585,100.342c0,28.757-23.311,52.068-52.068,52.068S394.847,158.926,394.847,130.169z"/>
<path style="fill:#11BBA3;" d="M455.593,164.881c-28.757,0-52.068-23.311-52.068-52.068c0-10.418,6.838-28.095,15.554-46.403
	c-12.39,23.754-24.232,50.045-24.232,63.759c0,28.757,23.311,52.068,52.068,52.068c23.836,0,43.916-16.023,50.095-37.88
	C487.498,156.828,472.489,164.881,455.593,164.881z"/>
<circle style="fill:#8FDED7;" cx="464.271" cy="104.136" r="17.356"/>
<g>
	<path style="fill:#66BF00;" d="M143.186,329.763h-26.034c-4.792,0-8.678-3.886-8.678-8.678v-26.034
		c0-4.792,3.886-8.678,8.678-8.678h17.356v-8.678h-17.356c-4.792,0-8.678-3.886-8.678-8.678c0-4.792,3.886-8.678,8.678-8.678h26.034
		c4.792,0,8.678,3.886,8.678,8.678v26.034c0,4.792-3.886,8.678-8.678,8.678h-17.356v8.678h17.356c4.792,0,8.678,3.886,8.678,8.678
		S147.979,329.763,143.186,329.763z"/>
	<path style="fill:#66BF00;" d="M73.763,295.051H39.051c-14.354,0-26.034-11.679-26.034-26.034v-69.424
		c0-14.354,11.679-26.034,26.034-26.034h34.712c14.354,0,26.034,11.679,26.034,26.034v69.424
		C99.797,283.371,88.117,295.051,73.763,295.051z M39.051,190.915c-4.785,0-8.678,3.893-8.678,8.678v69.424
		c0,4.785,3.893,8.678,8.678,8.678h34.712c4.785,0,8.678-3.893,8.678-8.678v-69.424c0-4.785-3.893-8.678-8.678-8.678H39.051z"/>
</g>
<path style="fill:#A3682D;" d="M356.284,447.04c-2.328-4.19-7.612-5.698-11.8-3.371l-65.21,36.227v-63.353
	c0-4.792-3.886-8.678-8.678-8.678c-4.792,0-8.678,3.886-8.678,8.678v78.168c0,0.013,0,0.027,0,0.04v8.572
	c0,4.792,3.886,8.678,8.678,8.678c4.792,0,8.678-3.886,8.678-8.678v-3.572l73.638-40.91
	C357.102,456.513,358.612,451.229,356.284,447.04z"/>
<path style="fill:#66BF00;" d="M277.736,359.542c-3.391-4.91-10.889-4.91-14.28,0c-4.605,6.666-27.572,40.74-27.572,57
	c0,19.14,15.572,34.712,34.712,34.712s34.712-15.572,34.712-34.712C305.308,400.282,282.341,366.208,277.736,359.542z"/>
<path style="fill:#58AB23;" d="M279.274,442.576c-19.14,0-34.712-15.572-34.712-34.712c0-13.624,16.12-39.748,24.056-51.783
	c-2.012,0.452-3.881,1.604-5.162,3.46c-4.605,6.666-27.572,40.74-27.572,57c0,19.14,15.572,34.712,34.712,34.712
	c11.781,0,22.205-5.905,28.483-14.907C293.458,440.268,286.632,442.576,279.274,442.576z"/>
<path style="fill:#66BF00;" d="M385.182,432.089c-1.321-2.526-3.798-4.244-6.627-4.593c-8.041-0.991-48.879-5.561-63.288,1.971
	c-12.484,6.526-19.942,20.374-18.458,34.408c0.459,4.338,1.756,8.571,3.776,12.436c6.371,12.188,19.761,19.577,33.469,18.525
	c4.662-0.358,9.232-1.678,13.375-3.843c14.411-7.533,33.968-43.672,37.743-50.841C386.498,437.629,386.504,434.615,385.182,432.089z
	"/>
<g>
	<path style="fill:#58AB23;" d="M348.649,486.161c-13.708,1.053-27.097-6.337-33.469-18.525c-2.02-3.864-3.317-8.098-3.776-12.434
		c-1.093-10.339,2.677-20.566,9.724-27.85c-2.233,0.566-4.225,1.259-5.863,2.115c-12.484,6.526-19.942,20.374-18.458,34.408
		c0.459,4.337,1.756,8.571,3.776,12.436c6.371,12.188,19.761,19.577,33.469,18.525c4.662-0.358,9.232-1.678,13.375-3.843
		c2.415-1.263,4.976-3.341,7.58-5.938C352.93,485.617,350.8,485.995,348.649,486.161z"/>
	<path style="fill:#58AB23;" d="M261.918,450.155c2.775,0.717,5.683,1.099,8.678,1.099c2.995,0,5.903-0.382,8.678-1.099v-33.613
		c0-4.792-3.886-8.678-8.678-8.678c-4.792,0-8.678,3.886-8.678,8.678V450.155z"/>
	<path style="fill:#58AB23;" d="M356.284,447.04c-2.328-4.19-7.612-5.698-11.8-3.371l-46.576,25.876
		c0.656,2.339,1.549,4.611,2.676,6.767c1.605,3.072,3.659,5.836,6.05,8.24l46.279-25.71
		C357.102,456.513,358.612,451.229,356.284,447.04z"/>
</g>
<g>
	<path style="fill:#C6C19F;" d="M394.855,414.073c-3.962,0-7.513-2.788-8.444-6.641c-0.841-3.481,0.606-7.216,3.571-9.224
		c57.385-38.86,91.645-103.375,91.645-172.582c0-11.178-0.892-22.393-2.651-33.332c-0.762-4.732,2.458-9.186,7.19-9.946
		c4.725-0.763,9.185,2.458,9.946,7.19c1.905,11.848,2.871,23.99,2.871,36.088c0,74.972-37.11,144.861-99.271,186.953
		C398.222,413.589,396.53,414.073,394.855,414.073z"/>
	<path style="fill:#C6C19F;" d="M70.888,156.206c-6.006,0-10.25-6.221-8.093-11.805c16.23-42.046,44.416-77.965,81.511-103.873
		C182.264,14.014,226.89,0,273.356,0c45.302,0,88.997,13.374,126.36,38.677c3.969,2.688,5.007,8.082,2.32,12.05
		c-2.689,3.969-8.085,5.007-12.05,2.32c-34.482-23.349-74.811-35.691-116.63-35.691c-85.483,0-163.594,53.567-194.371,133.295
		C77.656,154.095,74.371,156.206,70.888,156.206z"/>
	<path style="fill:#C6C19F;" d="M221.3,444.969c-0.687,0-1.384-0.082-2.082-0.254c-64.865-15.977-118.999-59.644-148.524-119.804
		c-2.111-4.302-0.336-9.502,3.967-11.613c4.302-2.112,9.501-0.336,11.613,3.967c27.259,55.54,77.226,95.851,137.095,110.597
		c4.197,1.034,7.049,5.147,6.542,9.439C229.403,441.613,225.642,444.969,221.3,444.969z"/>
</g>
</svg>